<svg aria-hidden="true" style="position:absolute;width:0;height:0;overflow:hidden" xmlns="http://www.w3.org/2000/svg">
  <defs>
    <symbol id="icon-girl" viewBox="0 0 26 32">
      <path d="M23.467 22.981c-.408-3.16-2.277-5.275-4.037-6.597 2.061-.861 3.275-1.867 3.691-3.043.512-1.453-.309-2.835-.907-3.843-.283-.475-.667-1.123-.533-1.296a1.257 1.257 0 0 0 .184-1.153l.003.009c-.267-.848-1.437-1.429-2.003-1.669a2.626 2.626 0 0 0-1.033-2.3l-.007-.005c-1.507-1.173-4.325-1.125-6.067-.419-.845.347-1.403.864-1.651 1.536a2.631 2.631 0 0 0 .038 1.802l-.006-.018a9.367 9.367 0 0 0-1.324 3.341l-.009.059c-.912.267-2.352 1.24-2.021 3.216.304 1.835.92 2.693 1.224 3.019-2.4.765-5.72 2.619-6.885 7.099a.4.4 0 1 0 .773.202v-.003c1.371-5.24 5.848-6.571 7.84-6.907.141.213 1.067 1.44 3.392 1.499h.096a3.904 3.904 0 0 0 3.041-1.548l.007-.01c1.867.984 4.888 3.171 5.411 7.133a.403.403 0 0 0 .397.347h.051a.4.4 0 0 0 .336-.455v.002zM17.912 10.4c-.096.4-.584.848-1.296.896a.402.402 0 0 0-.365.309l-.001.003-.707 3.229a.4.4 0 0 0 .264.466l.003.001c.013 0 .291.096.723.291a3.045 3.045 0 0 1-2.359 1.117h-.027.001c-1.315-.032-2.064-.483-2.443-.8a.402.402 0 0 0 .362-.285l.001-.003.645-2.253a.403.403 0 0 0-.348-.509h-.002c-.064 0-1.579-.176-1.795-2.133-.184-1.64.696-3.373 1.125-4.104.8.579 2.792 1.805 4.821 1.437a1.51 1.51 0 0 0 .036.41l-.002-.01c.145.513.487.929.936 1.168l.01.005a.711.711 0 0 1 .413.77l.001-.004z"/>
    </symbol>
    <symbol id="icon-girly" viewBox="0 0 26 32">
      <path d="M12.608 19.238c.529-1.2.153-1.934-.098-2.454zm.331-13.108c.341-.295.224-.295.278-.681.107-.698-.421-.232-1.084-.636-.529-.313-.906-.152-1.542.269-.341.232-.878.663-.592 1.093.322.483-.448 1.003-.385 1.093.753 1.128-.233.322.009 1.594.404-.43.914-.824 1.389-1.056 0 0-.063-1.218.358-.161l.071-.717c-.233-.556-.063-1.298.726-1.344.125-.009.233-.215.412-.063.188.152.305.367.358.609zm-3.45 2.883c-.341-1.54.672-.654-.009-1.657-.18-.269.655-.698.385-1.093-.484-.725.726-1.388 1.228-1.647.824-.412 1.111.215 1.496.215 1.12 0 .735.51.762.905.018.242-.224.439-.385.573.027.367-.063.77-.331 1.02.009.044.027.117.027.188.906-.242 1.102-.125 1.891-.009-.206-.752-.18-1.119-.251-1.988-.018-.188.027-.305.09-.322.242-.071.896.94.986 1.576.242-.054 1.963 1.146 2.214 2.534.268 1.459-1.963 3.474-2.393 3.85 2.429 2.22 1.55 7.199-2.5 8.256.018.94-.09 1.11.117 2.069.081.358 0 .278-.295.394-.475.188-.421-.886-.636-1.37l-.394-.483c-.134.556-.322 1.764-.699 1.934-.26.117-.134-.681-.394-1.397-.287-.815-.314-.779.431-1.244.044-.027.09-.054.081-.071-.627-1.02-1.165-2.427-1.04-3.662a9.188 9.188 0 0 1 .833-2.883c-1.021-.859-2.653-2.552-2.142-4.074a4.84 4.84 0 0 1 .932-1.612zm5.135-1.845c.322 1.155-.09 0-1.963.51-.009 1.317-1.335.734-1.944.475-.843.537-1.658 1.442-2.007 2.516-.484 1.459 1.138 3.107 2.106 3.922l1.156-.493-1.407-3.528c-.036-.098.107-.161.144-.071l1.416 3.545 2.868-.949c-.268-2.105-.358-1.62-.036-3.796.018-.107.18-.081.161.018-.314 2.122-.242 1.603.018 3.68.502-.439 2.545-2.319 2.303-3.662-.161-.905-.906-1.657-1.586-2.14-.153-.107-.305-.188-.448-.269zm-.036-.134.645-.206c-.009-.349-.592-1.317-.77-1.451zm-3.764 7.772c-.538 1.101-1.102 2.793-.619 4.494.6 2.086 1.272 1.781.565 2.239-.797.51-.224.197-.027 1.952.009.117.018.215.036.278.314-.295.439-1.415.582-1.898.044-.063.26-.322.385-.367.027-.009.054-.018.071 0 .081.081-.224.34-.26.376.743.627.529 1.155.743 1.71.044.107.081.144.126.144s.197-.063.26-.081l-.027-.134c-.215-.994-.098-1.29-.125-2.256-.036-1.63-.188-3.232-.188-4.889 0-.098.134-.107.161-.018.018.107.081.242.161.394.268.564.681 1.415-.044 2.811l.071 1.693c4.015-1.101 4.66-6.008 2.366-8.014l-2.904.958c.071.421-.278 2.194-.358 2.283-.126.134-.377-.215-.538-.591-.125-.295-.197-.636-.125-.895zm.054-6.75c.923.385 1.676.609 1.622-.618-.331.179-.69.054-.914-.251-.018.152-.027.483-.134.609a.133.133 0 0 1-.153.027l-.044-.125-.098-.242c-.036.43.197.322-.278.6zm1.603-.798c.09-.134.358-.295.331-.895-.018-.232-.206-.842-.439-.698s-.932.044-.869.869c.044.573.538 1.056.977.725zm-.465 6.993-1.057.457c.636.51.134.161.358.878l.385.77c.009-.009.358-1.701.314-2.105z"/>
    </symbol>
    <symbol id="icon-wave" viewBox="0 0 26 32">
      <path d="M17.529 11.274a1.126 1.126 0 0 0-.795-.538h-.001a1.293 1.293 0 0 0-.163-.013l-.008-.001a1.25 1.25 0 0 0-.123.007l-.031.005a1.168 1.168 0 0 0-.103.019l-.036.009a1.074 1.074 0 0 0-.125.041l.131-.855a1.12 1.12 0 0 0-.618-1.182 1.11 1.11 0 0 0-.477-.113l-.018-.001-.013.001a1.374 1.374 0 0 0-.168.015 1.348 1.348 0 0 0-.126.028l-.022.006a1.592 1.592 0 0 0-.131.049l-.028.013c-.043.02-.084.043-.124.069a1.12 1.12 0 0 0-1.022-.674l-.01-.001h-.005c-.048 0-.095.004-.142.01l-.025.004c-.045.007-.09.017-.134.03l-.023.007a1.44 1.44 0 0 0-.13.048l-.015.007a1.088 1.088 0 0 0-.121.066l-.008.005a1.3 1.3 0 0 0-.113.082l-.018.014c-.034.03-.067.061-.097.094l-.017.019a1.113 1.113 0 0 0-.166.252 1.128 1.128 0 0 0-.739-.292l-.019-.002-.031.001a.648.648 0 0 0-.045.002l-.062.006-.044.006a1.409 1.409 0 0 0-.063.013l-.041.009-.065.019-.034.011a.854.854 0 0 0-.097.039 1.162 1.162 0 0 0-.092.049l-.02.013a1.26 1.26 0 0 0-.066.044l-.03.023-.052.042-.03.028a.609.609 0 0 0-.044.044l-.029.031a.571.571 0 0 0-.039.047l-.027.035a1.474 1.474 0 0 0-.057.087l-.03.055c-.006.013-.014.026-.019.039a1.514 1.514 0 0 0-.042.098.695.695 0 0 0-.031.103.966.966 0 0 0-.022.107l-.744 4.822-.656-.896a1.291 1.291 0 0 0-.974-.532l-.036-.001-.049-.002-.033.001-.042.002-.082.007a1.458 1.458 0 0 0-.15.026l-.009.003a1.008 1.008 0 0 0-.138.044.792.792 0 0 0-.075.031c-.013.006-.025.011-.037.018l-.073.038a.946.946 0 0 0-.131.085 1.285 1.285 0 0 0-.52.856 1.295 1.295 0 0 0 .236.973l1.256 1.716.769 1.377a3.692 3.692 0 0 0 2.773 2.065l.751.116a4.359 4.359 0 0 0 .315.035c.083.006.167.009.249.009h.002c.058 0 .117-.002.174-.005l.054-.004.121-.009.066-.007.107-.013.07-.011c.034-.006.068-.011.101-.018l.071-.015.098-.022.07-.018.097-.027.069-.02a2.81 2.81 0 0 0 .098-.032l.064-.022.102-.039a2.328 2.328 0 0 0 .212-.093 4.42 4.42 0 0 0 .154-.077l.006-.003c.048-.026.095-.053.143-.081.015-.008.029-.018.044-.027l.1-.063.051-.034.089-.062.053-.04c.028-.021.056-.042.082-.064l.053-.043.079-.067.051-.045.076-.07.048-.046.074-.077.044-.046.077-.086.036-.042a4.99 4.99 0 0 0 .091-.113l.017-.02c.035-.045.069-.093.101-.14l.021-.031.073-.112.031-.052a3.01 3.01 0 0 0 .056-.096l.032-.06.049-.094.031-.065.043-.094.029-.068.038-.094.026-.069a1.61 1.61 0 0 0 .033-.098c.007-.023.016-.046.022-.069l.03-.105.019-.068.028-.118.013-.057c.012-.059.023-.119.032-.179l.787-5.097c.012-.077.016-.153.012-.228a1.137 1.137 0 0 0-.158-.516zm-5.522 8.268a3.121 3.121 0 0 1-1.55-.706 3.168 3.168 0 0 1-.813-1.059l-.011-.021-.175-.313-1.035-1.672-.853-1.164a.86.86 0 0 1-.126-.267c-.012-.047-.019-.096-.02-.145s.001-.099.008-.149a.75.75 0 0 1 .508-.6l.017-.005a.74.74 0 0 1 .093-.022l.016-.003c.034-.006.069-.007.103-.008h.023a.928.928 0 0 1 .178.023.755.755 0 0 1 .421.285l1.039 1.419a.277.277 0 0 0 .236.133l.008-.001a.11.11 0 0 0 .018-.002.19.19 0 0 0 .051-.011.208.208 0 0 0 .032-.012l.014-.006a.28.28 0 0 0 .15-.205l.018-.116.829-5.368a.622.622 0 0 1 .028-.107c.004-.011.01-.021.015-.032a.551.551 0 0 1 .031-.065c.007-.012.016-.023.024-.034a.49.49 0 0 1 .039-.051c.009-.011.02-.021.031-.031l.045-.041a.81.81 0 0 1 .088-.057.43.43 0 0 1 .098-.039c.014-.005.029-.008.044-.012.02-.005.042-.007.063-.009.015-.002.03-.004.044-.004a.51.51 0 0 1 .215.035.574.574 0 0 1 .366.624l-.527 3.414a.278.278 0 0 0 .275.319l.007-.001.021-.002.031-.005.021-.006.028-.01.019-.009c.008-.005.017-.009.025-.015l.018-.012.022-.019.015-.015a.271.271 0 0 0 .019-.025l.011-.017c.006-.01.01-.02.015-.031.003-.006.006-.01.007-.016a.283.283 0 0 0 .013-.052l.62-4.022a.622.622 0 0 1 .028-.107c.004-.011.01-.021.015-.032a.551.551 0 0 1 .031-.065c.007-.012.016-.023.024-.034a.49.49 0 0 1 .039-.051c.009-.011.02-.021.031-.031l.045-.041a.81.81 0 0 1 .088-.057.43.43 0 0 1 .098-.039c.014-.005.029-.008.044-.012.02-.005.042-.007.063-.009.015-.002.03-.004.044-.004a.572.572 0 0 1 .581.659l-.62 4.022a.275.275 0 0 0 .275.319l.007-.001.021-.002.031-.005.021-.006.028-.01.019-.009c.008-.005.017-.009.025-.015l.018-.012.022-.019.015-.015a.271.271 0 0 0 .019-.025l.011-.017c.006-.01.01-.02.015-.031.003-.006.006-.01.007-.016a.307.307 0 0 0 .014-.052l.584-3.786a.622.622 0 0 1 .028-.107c.004-.011.01-.021.015-.032a.551.551 0 0 1 .031-.065c.007-.012.016-.023.024-.034a.49.49 0 0 1 .039-.051c.009-.011.02-.021.031-.031l.045-.041a.81.81 0 0 1 .088-.057.43.43 0 0 1 .098-.039c.014-.005.029-.008.044-.012.02-.005.042-.007.063-.009.015-.002.03-.004.044-.004a.573.573 0 0 1 .582.659l-.584 3.786a.278.278 0 0 0 .275.319l.007-.001.021-.002.031-.005.021-.006.028-.01.019-.009c.008-.005.017-.009.025-.015l.018-.012.022-.019.015-.015a.271.271 0 0 0 .019-.025l.011-.017c.006-.01.01-.02.015-.031.003-.006.006-.01.007-.016a.283.283 0 0 0 .013-.052L16 11.769a.622.622 0 0 1 .028-.107c.004-.011.01-.021.015-.032a.551.551 0 0 1 .031-.065c.007-.012.016-.023.024-.034a.49.49 0 0 1 .039-.051c.009-.011.02-.021.031-.031a.897.897 0 0 1 .082-.067.891.891 0 0 1 .093-.05.43.43 0 0 1 .057-.02c.014-.005.029-.008.044-.012.02-.005.042-.007.063-.009.015-.002.03-.004.044-.004a.566.566 0 0 1 .477.234.568.568 0 0 1 .104.426l-.787 5.097a2.912 2.912 0 0 1-.06.296 3.388 3.388 0 0 1-.072.243l-.013.039a2.833 2.833 0 0 1-.11.265 2.975 2.975 0 0 1-.111.218l-.017.029a4.266 4.266 0 0 1-.134.214l-.006.009a3.287 3.287 0 0 1-.152.2l-.014.018a2.832 2.832 0 0 1-.165.181l-.026.027c-.056.056-.115.11-.175.162l-.031.027a2.951 2.951 0 0 1-.424.299l-.017.009a3.066 3.066 0 0 1-.219.117c-.005.002-.008.005-.013.006a3.08 3.08 0 0 1-.229.097l-.032.012a2.568 2.568 0 0 1-.23.074l-.04.011a3.193 3.193 0 0 1-.52.093l-.028.002a3.21 3.21 0 0 1-.26.012h-.005c-.07 0-.141-.004-.212-.008l-.053-.004a3.145 3.145 0 0 1-.215-.025zM19.442 6.782a.307.307 0 1 0-.34.512 4.331 4.331 0 0 1 1.935 3.522c.004.168.14.301.307.301h.006a.308.308 0 0 0 .301-.313 4.94 4.94 0 0 0-2.21-4.022z"/>
      <path d="M19.653 5.218a.307.307 0 0 0-.283.545 5.782 5.782 0 0 1 3.067 5.957.308.308 0 0 0 .304.351c.15 0 .281-.11.304-.264a6.4 6.4 0 0 0-3.393-6.59zM6.971 21.15a4.329 4.329 0 0 1-1.935-3.522.306.306 0 0 0-.307-.301h-.006a.308.308 0 0 0-.301.313 4.94 4.94 0 0 0 2.21 4.022.306.306 0 0 0 .425-.086.307.307 0 0 0-.086-.426z"/>
      <path d="M6.704 22.682a5.783 5.783 0 0 1-3.067-5.957.308.308 0 0 0-.608-.088 6.401 6.401 0 0 0 3.393 6.591.305.305 0 0 0 .414-.133.306.306 0 0 0-.131-.413z"/>
    </symbol>
    <symbol id="icon-cta" viewBox="0 0 26 32">
      <path d="M21.867 7.467h-4.802V6.4h4.802c1.471 0 2.667-1.197 2.667-2.667s-1.196-2.667-2.667-2.667H3.734c-1.47 0-2.667 1.197-2.667 2.667S2.264 6.4 3.734 6.4h4.8v1.067h-4.8C1.675 7.467.001 5.792.001 3.734S1.676.001 3.734.001h18.133c2.059 0 3.733 1.675 3.733 3.733s-1.675 3.733-3.733 3.733zM17.067 10.626h1.067v3.241h-1.067v-3.241zM20.267 11.051h1.067v2.816h-1.067v-2.816z"/>
      <path d="M17.06 25.6h-.065a7.45 7.45 0 0 1-5.04-2.022l-.032-.031v-.001l-7.036-7.108c-.399-.399-.621-.935-.621-1.506s.222-1.107.623-1.508a2.136 2.136 0 0 1 3.018 0l2.752 2.752.007-11.865c0-1.177.957-2.133 2.133-2.133s2.133.957 2.133 2.133v4.72a5.345 5.345 0 0 1 2.662.677l.114.065a5.233 5.233 0 0 1 3.041.639l.222.125.613.079a5.188 5.188 0 0 1 1.81.583 2.164 2.164 0 0 1 1.137 1.907v4.739c0 2.069-.86 4.109-2.356 5.593-1.408 1.396-3.223 2.162-5.117 2.162zm-4.369-2.795a6.386 6.386 0 0 0 4.315 1.728c1.663.025 3.199-.643 4.42-1.853 1.297-1.284 2.041-3.047 2.041-4.835v-4.739c0-.405-.222-.777-.578-.97a4.113 4.113 0 0 0-1.439-.464l-.909-.156-.313-.175a4.149 4.149 0 0 0-2.548-.493l-.177.022-.434-.237a4.314 4.314 0 0 0-2.135-.539v2.704h-1.067v-8.49c0-.588-.479-1.067-1.067-1.067s-1.067.479-1.067 1.067V16.17a1.07 1.07 0 0 1-1.829.757l-2.752-2.752a1.067 1.067 0 0 0-1.509 0c-.199.199-.309.466-.309.753s.11.555.31.754l7.047 7.12z"/>
    </symbol>
    <symbol id="icon-tg" viewBox="0 0 26 32">
      <path d="m21.545 3.622-18.188 7.57s-.86.313-.793.889c.068.578.77.842.77.842l4.577 1.634s1.381 4.806 1.653 5.72c.272.912.49.933.49.933.253.117.483-.069.483-.069l2.957-2.859 4.608 3.748c1.246.577 1.7-.625 1.7-.625L23.04 4.079c0-1.154-1.495-.457-1.495-.457zm-3.22 16.39-4.93-4.009-1.53 1.479.336-3.146 6.572-6.228-8.958 5.318-3.973-1.418 15.16-6.31-2.676 14.315z"/>
    </symbol>
    <symbol id="icon-mail" viewBox="0 0 26 32">
      <path d="M7.512 20.783h11.051a2.423 2.423 0 0 0 2.422-2.422v-6.002l-6.731 4.193a2.283 2.283 0 0 1-2.432 0l-6.731-4.193v6.002a2.423 2.423 0 0 0 2.421 2.422z"/>
      <path d="m13.502 15.345 7.485-4.663v-.126a2.423 2.423 0 0 0-2.422-2.422l-11.053.001a2.423 2.423 0 0 0-2.422 2.422v.126l7.483 4.663a.877.877 0 0 0 .929-.001z"/>
    </symbol>
    <symbol id="icon-git" viewBox="0 0 26 32">
      <path d="M18.36 11.238a3.287 3.287 0 0 0-.739-2.069l.005.006a3.32 3.32 0 0 0-.151-2.029l.008.022a.444.444 0 0 0-.276-.255l-.003-.001c-.179-.061-.858-.177-2.24.719a6.544 6.544 0 0 0-1.705-.221l-.124.001h.006l-.119-.001a6.71 6.71 0 0 0-1.753.232l.047-.011c-1.418-.916-2.156-.768-2.304-.724a.45.45 0 0 0-.278.258l-.001.003a3.361 3.361 0 0 0-.144 2.025l-.005-.023a3.112 3.112 0 0 0-.733 2.012l.001.07v-.003c0 2.831 1.62 3.686 3.105 3.988a2.318 2.318 0 0 0-.155.568l-.002.013-.002.032.002.033v-.001.783c-1.352.113-1.641-.678-1.669-.768a.592.592 0 0 0-.025-.065l.002.004a2.276 2.276 0 0 0-1.264-1.134l-.016-.005a.449.449 0 0 0-.287.849l.003.001c.314.116.567.335.724.615l.004.007c.179.581.911 1.5 2.524 1.398v.737a.449.449 0 0 0 .896 0v-2.388c.036-.272.153-.512.326-.7l-.001.001a.445.445 0 0 0-.254-.768h-.002c-1.562-.182-3.005-.696-3.005-3.218l-.001-.075c0-.614.251-1.169.656-1.568a.474.474 0 0 0 .101-.479l.001.003a2.213 2.213 0 0 1-.024-1.372l-.004.016c.579.133 1.087.38 1.522.716l-.009-.007a.452.452 0 0 0 .398.053l-.003.001a5.423 5.423 0 0 1 1.763-.238h-.007l.144-.002c.574 0 1.128.088 1.649.251l-.039-.011a.454.454 0 0 0 .396-.054l-.002.001c.41-.316.894-.559 1.421-.698l.028-.006a2.26 2.26 0 0 1-.038 1.385l.005-.016a.442.442 0 0 0 .087.435c.409.436.663 1.02.673 1.665v.002c0 2.516-1.518 3.039-3.005 3.218a.446.446 0 0 0-.216.801l.001.001c.159.12.343.458.343 1.024v2.028a.449.449 0 0 0 .896 0v-2.064c0-.362-.071-.708-.199-1.024l.007.018c1.203-.256 3.062-1.047 3.062-3.994z"/>
    </symbol>
    <symbol id="icon-github1" viewBox="0 0 32 32">
      <path stroke-linejoin="round" stroke-linecap="round" stroke-width=".48" d="M20.126 28.333c.005-.778.01-3.479.01-4.548 0-1.545-.528-2.556-1.12-3.068 3.675-.411 7.534-1.811 7.534-8.178 0-1.809-.637-3.289-1.696-4.447.169-.419.735-2.105-.165-4.387 0 0-1.383-.445-4.534 1.701a15.772 15.772 0 0 0-4.131-.559 15.73 15.73 0 0 0-4.131.559C8.742 3.26 7.359 3.705 7.359 3.705c-.9 2.282-.334 3.967-.165 4.387-1.059 1.158-1.696 2.638-1.696 4.447 0 6.367 3.858 7.767 7.533 8.178-.592.512-1.12 1.523-1.12 3.068 0 1.069.005 3.77.01 4.548M4.5 21.667c1.657.117 2.612 1.622 2.612 1.622 1.472 2.533 3.863 1.8 4.803 1.378"/>
    </symbol>
    <symbol id="icon-linkedin" viewBox="0 0 32 32">
      <path d="M11.2 14.72a.96.96 0 0 0-1.92 0h1.92zM9.28 22.4a.96.96 0 0 0 1.92 0H9.28zm12.8 0a.96.96 0 0 0 1.92 0h-1.92zm-6.72-3.84zm-.96 3.84a.96.96 0 0 0 1.92 0H14.4zm-3.2-11.52a.96.96 0 0 0-1.92 0h1.92zm-1.92 1.28a.96.96 0 0 0 1.92 0H9.28zm0 2.56v7.68h1.92v-7.68H9.28zM24 22.4v-3.84h-1.92v3.84H24zm0-3.84a4.8 4.8 0 0 0-4.8-4.8v1.92a2.88 2.88 0 0 1 2.88 2.88H24zm-4.8-4.8a4.8 4.8 0 0 0-4.8 4.8h1.92a2.88 2.88 0 0 1 2.88-2.88v-1.92zm-4.8 4.8v3.84h1.92v-3.84H14.4zm-5.12-7.68v1.28h1.92v-1.28H9.28z"/>
    </symbol>
    <symbol id="icon-download" viewBox="0 0 32 32">
      <path d="M7.5 20a1 1 0 0 0-2 0h2zm-1 1.333zM25.7 20a1 1 0 0 0-2 0h2zm-10.889.718a1 1 0 0 0 1.577 1.231l-1.577-1.23zm6.778-5.436a1 1 0 0 0-1.577-1.231l1.577 1.23zm-6.778 6.666a1 1 0 0 0 1.577-1.231l-1.577 1.23zm-3.623-7.896a1 1 0 0 0-1.577 1.231l1.577-1.23zm3.412 7.281a1 1 0 0 0 2 0h-2zm2-14.666a1 1 0 0 0-2 0h2zM5.5 20v1.333h2V20h-2zm0 1.333c0 2.737 2.17 5 4.9 5v-2c-1.578 0-2.9-1.319-2.9-3h-2zm4.9 5h10.4v-2H10.4v2zm10.4 0c2.73 0 4.9-2.263 4.9-5h-2c0 1.681-1.322 3-2.9 3v2zm4.9-5V20h-2v1.333h2zm-9.311.615 5.2-6.667-1.577-1.23-5.2 6.667 1.577 1.23zm0-1.23-5.2-6.667-1.577 1.23 5.2 6.667 1.577-1.23zm.211.615V6.666h-2v14.667h2z"/>
    </symbol>
    <symbol id="icon-cross" viewBox="0 0 32 32">
      <path d="M8.921 21.721a.96.96 0 0 0 1.358 1.358l-1.358-1.358zm7.758-5.042a.96.96 0 0 0-1.358-1.358l1.358 1.358zm-1.358-1.358a.96.96 0 0 0 1.358 1.358l-1.358-1.358zm7.758-5.042a.96.96 0 0 0-1.358-1.358l1.358 1.358zm-6.4 5.042a.96.96 0 0 0-1.358 1.358l1.358-1.358zm5.042 7.758a.96.96 0 0 0 1.358-1.358l-1.358 1.358zm-6.4-6.4a.96.96 0 0 0 1.358-1.358l-1.358 1.358zm-5.042-7.758a.96.96 0 0 0-1.358 1.358l1.358-1.358zm0 14.158 6.4-6.4-1.358-1.358-6.4 6.4 1.358 1.358zm6.4-6.4 6.4-6.4-1.358-1.358-6.4 6.4 1.358 1.358zm-1.358 0 6.4 6.4 1.358-1.358-6.4-6.4-1.358 1.358zm1.358-1.358-6.4-6.4-1.358 1.358 6.4 6.4 1.358-1.358z"/>
    </symbol>
    <symbol id="icon-arrow-top" viewBox="0 0 32 32">
      <path d="M8.609 12.977a1.001 1.001 0 0 0 1.448 1.379l-1.448-1.379zm8.115-5.621a1 1 0 0 0-1.449-1.38l1.448 1.379zm0-1.379a1 1 0 0 0-1.449 1.38l1.448-1.379zm5.219 8.379a1.001 1.001 0 0 0 1.449-1.379l-1.448 1.379zM17 6.667a1 1 0 0 0-2 0h2zm-2 18.666a1 1 0 0 0 2 0h-2zm-4.943-10.977 6.667-7-1.448-1.379-6.667 7 1.448 1.379zm5.219-7 6.667 7 1.448-1.379-6.667-7-1.448 1.379zM15 6.667v18.667h2V6.667h-2z"/>
    </symbol>
    <symbol id="icon-arrow-right" viewBox="0 0 32 32">
      <path d="M17.644 21.943a1.001 1.001 0 0 0 1.379 1.449l-1.379-1.448zm8.379-5.219a1.001 1.001 0 0 0-1.379-1.449l1.379 1.448zm-1.379 0a1 1 0 1 0 1.379-1.449l-1.379 1.448zm-5.621-8.115a1.001 1.001 0 0 0-1.379 1.448l1.379-1.448zM25.333 17a1 1 0 0 0 0-2v2zM6.667 15a1 1 0 0 0 0 2v-2zm12.356 8.391 7-6.667-1.379-1.448-7 6.667 1.379 1.448zm7-8.115-7-6.667-1.379 1.448 7 6.667 1.379-1.448zm-.69-.276H6.666v2h18.667v-2z"/>
    </symbol>
    <symbol id="icon-burger" viewBox="0 0 26 32">
      <path stroke-linejoin="round" stroke-linecap="round" stroke-width=".768" d="M7.616 10.624H17.6m-9.984 4.78H17.6"/>
    </symbol>
    <symbol id="icon-github" viewBox="0 0 32 32">
      <path d="M16 .395c-8.836 0-16 7.163-16 16 0 7.069 4.585 13.067 10.942 15.182.8.148 1.094-.347 1.094-.77 0-.381-.015-1.642-.022-2.979-4.452.968-5.391-1.888-5.391-1.888-.728-1.849-1.776-2.341-1.776-2.341-1.452-.993.11-.973.11-.973 1.606.113 2.452 1.649 2.452 1.649 1.427 2.446 3.743 1.739 4.656 1.33.143-1.034.558-1.74 1.016-2.14-3.554-.404-7.29-1.777-7.29-7.907 0-1.747.625-3.174 1.649-4.295-.166-.403-.714-2.03.155-4.234 0 0 1.344-.43 4.401 1.64a15.353 15.353 0 0 1 4.005-.539c1.359.006 2.729.184 4.008.539 3.054-2.07 4.395-1.64 4.395-1.64.871 2.204.323 3.831.157 4.234 1.026 1.12 1.647 2.548 1.647 4.295 0 6.145-3.743 7.498-7.306 7.895.574.497 1.085 1.47 1.085 2.963 0 2.141-.019 3.864-.019 4.391 0 .426.288.925 1.099.768C27.421 29.457 32 23.462 32 16.395c0-8.837-7.164-16-16-16z"/>
    </symbol>
    <symbol id="icon-linkedin2" viewBox="0 0 32 32">
      <path d="M12 12h5.535v2.837h.079c.77-1.381 2.655-2.837 5.464-2.837C28.92 12 30 15.637 30 20.367V30h-5.769v-8.54c0-2.037-.042-4.657-3.001-4.657-3.005 0-3.463 2.218-3.463 4.509V30H12V12zM2 12h6v18H2V12zM8 7a3 3 0 1 1-6 0 3 3 0 0 1 6 0z"/>
    </symbol>
  </defs>
</svg>
