<svg aria-hidden="true" style="position:absolute;width:0;height:0;overflow:hidden" xmlns="http://www.w3.org/2000/svg">
  <defs>
    <symbol id="icon-react" viewBox="0 0 26 32">
      <path d="M24.265 14.222c0 1.107-1.297 2.083-3.393 2.762-.467.152-.976.29-1.519.412.227.509.419 1.001.576 1.468.706 2.088.696 3.707-.192 4.369s-2.445.202-4.242-1.075a20.07 20.07 0 0 1-2.457-2.104c-.846.838-1.677 1.549-2.457 2.104-1.796 1.278-3.351 1.737-4.242 1.075s-.898-2.283-.192-4.369c.157-.467.349-.956.576-1.468a16.396 16.396 0 0 1-1.519-.412c-2.098-.679-3.393-1.655-3.393-2.762s1.297-2.083 3.393-2.762c.467-.152.976-.29 1.519-.412a16.631 16.631 0 0 1-.576-1.468c-.707-2.088-.696-3.707.192-4.369s2.445-.202 4.242 1.075a20.07 20.07 0 0 1 2.457 2.104c.846-.838 1.677-1.549 2.457-2.104 1.796-1.278 3.351-1.737 4.242-1.075s.898 2.283.192 4.369c-.157.467-.349.956-.576 1.468.544.122 1.053.259 1.519.412 2.098.679 3.393 1.655 3.393 2.762zm-11.228-1.724a1.718 1.718 0 0 1 1.724 1.724 1.718 1.718 0 0 1-1.724 1.724 1.718 1.718 0 0 1-1.724-1.724 1.718 1.718 0 0 1 1.724-1.724zm.848.879a1.196 1.196 0 0 0-1.696 0 1.196 1.196 0 0 0 0 1.696 1.196 1.196 0 0 0 1.696 0 1.196 1.196 0 0 0 0-1.696zm-1.215 6.306a30.709 30.709 0 0 1-1.522-1.694 28.143 28.143 0 0 1-3.897-.479c-.24.532-.442 1.041-.604 1.522-.631 1.864-.676 3.273.007 3.782.686.509 2.021.06 3.623-1.083.758-.539 1.567-1.231 2.393-2.048zm.739-10.919a30.054 30.054 0 0 1 1.522 1.696c1.407.08 2.725.244 3.897.479.24-.531.442-1.041.604-1.522.631-1.864.676-3.273-.007-3.782-.686-.509-2.021-.06-3.623 1.083-.758.539-1.567 1.231-2.393 2.048zm5.722 2.772a26.954 26.954 0 0 1-1.477 2.687c.574.923 1.07 1.829 1.477 2.687a16.783 16.783 0 0 0 1.581-.424c1.871-.606 3.029-1.407 3.029-2.263s-1.157-1.656-3.029-2.263a16.949 16.949 0 0 0-1.581-.424zm-1.789 3.179a31.823 31.823 0 0 1-1.24 1.784 35.26 35.26 0 0 1-.719.933 27.201 27.201 0 0 0 3.217-.412 26.033 26.033 0 0 0-1.26-2.303zm-2.41 3.271a29.653 29.653 0 0 1-1.522 1.694c.826.819 1.634 1.509 2.393 2.048 1.605 1.14 2.939 1.592 3.623 1.083.686-.509.639-1.917.007-3.782a16.524 16.524 0 0 0-.604-1.522 28.413 28.413 0 0 1-3.897.479zM6.95 16.909c.406-.858.901-1.761 1.477-2.687a27.233 27.233 0 0 1-1.477-2.687 16.89 16.89 0 0 0-1.582.424c-1.871.606-3.029 1.407-3.029 2.263s1.157 1.656 3.029 2.263a16.89 16.89 0 0 0 1.582.424zm1.789-3.179a32.36 32.36 0 0 1 1.24-1.784c.237-.319.477-.629.719-.933a27.201 27.201 0 0 0-3.217.412c.355.739.776 1.512 1.26 2.303zm2.41-3.272a29.653 29.653 0 0 1 1.522-1.694c-.826-.819-1.634-1.509-2.393-2.048-1.605-1.14-2.939-1.592-3.623-1.083-.686.509-.639 1.917-.007 3.782.162.481.364.991.604 1.522a28.413 28.413 0 0 1 3.897-.479zm1.892-1.322c-.392.405-.783.833-1.175 1.29a34.96 34.96 0 0 1 2.35 0 30.318 30.318 0 0 0-1.175-1.29zm-1.634 1.836a33.625 33.625 0 0 0-2.361 3.251c.412.649.866 1.305 1.355 1.964.331.446.666.876 1.006 1.287.534.025 1.078.04 1.634.04s1.103-.012 1.634-.04a33.625 33.625 0 0 0 2.361-3.251 32.892 32.892 0 0 0-1.355-1.964 31.053 31.053 0 0 0-1.006-1.287c-.534-.025-1.078-.04-1.634-.04s-1.103.012-1.634.04zm-2.668 3.743a25.916 25.916 0 0 0-1.26 2.303c.981.19 2.064.331 3.217.412a34.144 34.144 0 0 1-1.959-2.717zm4.302 4.593c.392-.405.783-.833 1.175-1.29a34.869 34.869 0 0 1-2.35 0c.392.456.786.886 1.175 1.29zm4.301-5.578c.484-.791.906-1.565 1.26-2.303a26.967 26.967 0 0 0-3.217-.412 34.144 34.144 0 0 1 1.959 2.717z"/>
    </symbol>
    <symbol id="icon-css" viewBox="0 0 26 32">
      <path d="M20.067 9.726v-.044a.3.3 0 0 0-.089-.163l-5.185-5.185a.37.37 0 0 0-.163-.096H7.111c-.608 0-1.103.489-1.111 1.096v17.778a1.102 1.102 0 0 0 1.111 1.111h11.852a1.11 1.11 0 0 0 1.111-1.111V9.779s-.007 0-.007-.052zm-1.26-.319h-3.918V5.489zM7.111 4.963h7.037v4.815a.372.372 0 0 0 .37.37h4.815v6.667H6.74V5.333a.37.37 0 0 1 .37-.37zm11.852 18.518H7.111a.357.357 0 0 1-.371-.371v-5.578h12.593v5.578a.372.372 0 0 1-.37.37z"/>
      <path d="M9.704 19.407h.741a.37.37 0 1 0 0-.74h-.741a1.852 1.852 0 1 0 0 3.704h.741a.37.37 0 1 0 0-.74h-.741a1.11 1.11 0 1 1 0-2.222zM12.667 19.407h.741a.372.372 0 0 1 .37.37.37.37 0 1 0 .74 0 1.11 1.11 0 0 0-1.111-1.111h-.741a1.11 1.11 0 1 0 0 2.222h.741a.37.37 0 1 1 0 .74h-.741c-.205 0-.37-.166-.37-.37a.37.37 0 0 0-.74 0 1.11 1.11 0 0 0 1.111 1.111h.741a1.11 1.11 0 1 0 0-2.222h-.741a.37.37 0 1 1 0-.74zM16.37 19.407h.741a.372.372 0 0 1 .37.37.37.37 0 1 0 .74 0 1.11 1.11 0 0 0-1.111-1.111h-.741a1.11 1.11 0 1 0 0 2.222h.741a.37.37 0 1 1 0 .74h-.741c-.205 0-.37-.166-.37-.37a.37.37 0 0 0-.74 0 1.11 1.11 0 0 0 1.111 1.111h.741a1.11 1.11 0 1 0 0-2.222h-.741a.37.37 0 1 1 0-.74z"/>
    </symbol>
    <symbol id="icon-github" viewBox="0 0 26 32">
      <path d="M18.36 11.238a3.287 3.287 0 0 0-.739-2.069l.005.006a3.32 3.32 0 0 0-.151-2.029l.008.022a.444.444 0 0 0-.276-.255l-.003-.001c-.179-.061-.858-.177-2.24.719a6.544 6.544 0 0 0-1.705-.221l-.124.001h.006l-.119-.001a6.71 6.71 0 0 0-1.753.232l.047-.011c-1.418-.916-2.156-.768-2.304-.724a.45.45 0 0 0-.278.258l-.001.003a3.361 3.361 0 0 0-.144 2.025l-.005-.023a3.112 3.112 0 0 0-.733 2.012l.001.07v-.003c0 2.831 1.62 3.686 3.105 3.988a2.318 2.318 0 0 0-.155.568l-.002.013-.002.032.002.033v-.001.783c-1.352.113-1.641-.678-1.669-.768a.592.592 0 0 0-.025-.065l.002.004a2.276 2.276 0 0 0-1.264-1.134l-.016-.005a.449.449 0 0 0-.287.849l.003.001c.314.116.567.335.724.615l.004.007c.179.581.911 1.5 2.524 1.398v.737a.449.449 0 0 0 .896 0v-2.388c.036-.272.153-.512.326-.7l-.001.001a.445.445 0 0 0-.254-.768h-.002c-1.562-.182-3.005-.696-3.005-3.218l-.001-.075c0-.614.251-1.169.656-1.568a.474.474 0 0 0 .101-.479l.001.003a2.213 2.213 0 0 1-.024-1.372l-.004.016c.579.133 1.087.38 1.522.716l-.009-.007a.452.452 0 0 0 .398.053l-.003.001a5.423 5.423 0 0 1 1.763-.238h-.007l.144-.002c.574 0 1.128.088 1.649.251l-.039-.011a.454.454 0 0 0 .396-.054l-.002.001c.41-.316.894-.559 1.421-.698l.028-.006a2.26 2.26 0 0 1-.038 1.385l.005-.016a.442.442 0 0 0 .087.435c.409.436.663 1.02.673 1.665v.002c0 2.516-1.518 3.039-3.005 3.218a.446.446 0 0 0-.216.801l.001.001c.159.12.343.458.343 1.024v2.028a.449.449 0 0 0 .896 0v-2.064c0-.362-.071-.708-.199-1.024l.007.018c1.203-.256 3.062-1.047 3.062-3.994z"/>
    </symbol>
    <symbol id="icon-arrow-right" viewBox="0 0 26 32">
      <path d="M23.014 12.518q-.051-.269-.243-.448l-7.36-6.976-1.203 1.408 5.606 5.312H2.56v1.907h17.254l-5.606 5.325 1.203 1.421 7.36-6.989q.192-.192.243-.435.077-.269 0-.525z"/>
    </symbol>
    <symbol id="icon-arrow-up" viewBox="0 0 26 32">
      <path d="M12.544 2.611q-.269.051-.448.243l-6.963 7.347 1.408 1.203 5.299-5.606V23.04h1.907V5.798l5.325 5.606 1.408-1.203-6.976-7.347q-.192-.192-.435-.243-.269-.077-.525 0z"/>
    </symbol>
    <symbol id="icon-heart" viewBox="0 0 26 32">
      <path d="M22.372 5.819a6.506 6.506 0 0 0-9.334-.041 6.502 6.502 0 0 0-9.335.039 6.916 6.916 0 0 0 .001 9.576l8.713 8.965a.864.864 0 0 0 1.242 0l8.713-8.965a6.914 6.914 0 0 0 0-9.574zm-1.241 8.369-8.093 8.321-8.093-8.324a5.173 5.173 0 0 1 0-7.156 4.775 4.775 0 0 1 6.89 0l.581.598a.896.896 0 0 0 1.242 0l.581-.598a4.775 4.775 0 0 1 6.89 0 5.173 5.173 0 0 1 0 7.159z"/>
    </symbol>
    <symbol id="icon-html" viewBox="0 0 26 32">
      <path d="M5.136 26.074h15.802c.655 0 1.185-.531 1.185-1.185V7.901a2.191 2.191 0 0 0-.669-1.622l-3.24-3.24a2.19 2.19 0 0 0-1.622-.668H5.136c-.655 0-1.185.531-1.185 1.185v21.333c0 .655.531 1.185 1.185 1.185zm15.803-.79H5.136a.395.395 0 0 1-.395-.395v-5.136h16.593v5.136a.397.397 0 0 1-.396.396zm-.164-18.567-2.207-.001a.79.79 0 0 1-.79-.79V3.72zM5.136 3.16h11.456a.397.397 0 0 1 .396.396v2.37a1.58 1.58 0 0 0 1.58 1.581h2.37a.397.397 0 0 1 .396.395v11.062H4.741V3.557c0-.219.177-.395.395-.395z"/>
      <path d="M12.642 20.544h-2.37a.394.394 0 0 0 0 .789h.79v2.766h.001a.394.394 0 0 0 .789 0v-2.766h.79a.395.395 0 1 0 0-.789zM16.718 20.564a.396.396 0 0 0-.441.137l-.869 1.159-.869-1.159a.397.397 0 0 0-.711.237v3.161a.394.394 0 0 0 .79 0v-1.976l.474.632a.411.411 0 0 0 .632 0l.474-.632v1.976a.394.394 0 0 0 .79 0v-3.161a.396.396 0 0 0-.27-.374zM8.692 20.544a.394.394 0 0 0-.395.394v1.185H6.716v-1.185a.394.394 0 0 0-.789 0v3.161a.394.394 0 0 0 .789 0v-1.185h1.581v1.185a.394.394 0 0 0 .789 0v-3.161a.394.394 0 0 0-.395-.395zM20.148 23.704h-1.581v-2.766a.394.394 0 0 0-.789 0v3.161a.394.394 0 0 0 .396.395h1.975a.394.394 0 1 0 0-.789zM10.015 15.707a.396.396 0 0 0 .514-.6l-2.416-2.07 2.416-2.07a.395.395 0 1 0-.515-.599l-2.766 2.37a.398.398 0 0 0 0 .6zM15.503 15.664a.395.395 0 0 0 .556.044l2.766-2.37a.398.398 0 0 0 0-.6l-2.766-2.37a.396.396 0 1 0-.515.599l2.416 2.07-2.416 2.07a.395.395 0 0 0-.043.556zM12.161 16.979a.395.395 0 0 0 .471-.3l1.581-7.111a.395.395 0 1 0-.772-.172l-1.581 7.111a.395.395 0 0 0 .301.472z"/>
    </symbol>
    <symbol id="icon-phone" viewBox="0 0 26 32">
      <path d="M19.137 25.319c-4.034 0-8.294-1.975-11.849-5.529-3.295-3.295-5.249-7.218-5.501-11.048a4.54 4.54 0 0 1 1.464-3.649c.845-.763 1.706-1.284 2.556-1.552.907-.283 1.907.093 2.433.916 1.224 1.916 1.968 3.702 2.274 5.461a2.173 2.173 0 0 1-.558 1.843L8.768 13.03a.396.396 0 0 0-.037.491 17.046 17.046 0 0 0 2.168 2.656 16.734 16.734 0 0 0 3.537 2.71c.139.08.323.054.447-.062l1.101-1.032a2.168 2.168 0 0 1 1.845-.56c1.76.307 3.544 1.051 5.457 2.271.829.529 1.203 1.539.91 2.456a5.827 5.827 0 0 1-.522 1.157c-.709 1.217-2.001 2.021-3.454 2.152-.359.032-.721.048-1.084.048zM6.424 4.406c-.11 0-.221.016-.33.05-.718.225-1.459.679-2.201 1.348A3.578 3.578 0 0 0 2.744 8.68c.236 3.596 2.091 7.302 5.222 10.433 3.673 3.673 8.109 5.571 12.169 5.204 1.144-.103 2.158-.731 2.713-1.68.188-.322.335-.647.437-.967a1.19 1.19 0 0 0-.513-1.357c-1.803-1.151-3.473-1.849-5.107-2.135a1.209 1.209 0 0 0-1.025.316l-1.102 1.032a1.35 1.35 0 0 1-1.578.195 17.686 17.686 0 0 1-3.739-2.865 17.939 17.939 0 0 1-2.292-2.807 1.352 1.352 0 0 1 .137-1.673l1.188-1.269c.26-.278.378-.66.315-1.023-.284-1.632-.983-3.304-2.138-5.11a1.207 1.207 0 0 0-1.009-.569zM23.817 14.863a.48.48 0 0 1-.479-.479c0-5.68-4.621-10.301-10.301-10.301a.48.48 0 0 1 0-.958c6.208 0 11.259 5.051 11.259 11.259a.48.48 0 0 1-.48.478z"/>
      <path d="M19.92 14.863a.48.48 0 0 1-.479-.479 6.413 6.413 0 0 0-6.405-6.405.48.48 0 0 1 0-.958c4.06 0 7.363 3.303 7.363 7.363a.48.48 0 0 1-.48.478z"/>
    </symbol>
    <symbol id="icon-mail" viewBox="0 0 26 32">
      <path d="m21.589 9.147.09-.059-.374-.31a1.067 1.067 0 0 0-.682-.244H5.453c-.249 0-.491.088-.682.244l-.374.31.09.056c-.067.14-.1.294-.1.453v9.244c0 .588.479 1.067 1.067 1.067h15.17c.588 0 1.067-.479 1.067-1.067V9.599c0-.159-.035-.313-.1-.453zm-1.47.097-7.021 4.513a.115.115 0 0 1-.126 0L5.951 9.244zm.859 9.6a.356.356 0 0 1-.356.356H5.452a.356.356 0 0 1-.356-.356V9.6a.26.26 0 0 1 .007-.056l7.485 4.812a.83.83 0 0 0 .898 0l7.485-4.812c.003.019.007.038.007.056v9.244z"/>
    </symbol>
    <symbol id="icon-linkedin" viewBox="0 0 32 32">
      <path d="M12 12h5.535v2.837h.079c.77-1.381 2.655-2.837 5.464-2.837C28.92 12 30 15.637 30 20.367V30h-5.769v-8.54c0-2.037-.042-4.657-3.001-4.657-3.005 0-3.463 2.218-3.463 4.509V30H12V12zM2 12h6v18H2V12zM8 7a3 3 0 1 1-6 0 3 3 0 0 1 6 0z"/>
    </symbol>
  </defs>
</svg>
